External Loads File
version=1
nRows=92
nColumns=13
Range=5.000000e-03-10 seconds
endheader
time 	forceRightX 	forceRightY 	forceRightZ 	pointRightX 	pointRightY 	pointRightZ 	forceLeftX 	forceLeftY 	forceLeftZ 	pointLeftX 	pointLeftY 	pointLeftZ 		
2.505000 11.334663 362.984605 -0.000000 0.324972 0.429798 -0.124408 -40.819952 -193.862412 -0.000000 0.096451 0.192379 -0.361915
2.510000 17.120907 396.966731 -0.000000 0.329206 0.423284 -0.123732 -63.146223 -227.736377 -0.000000 0.092011 0.198660 -0.361635
2.515000 23.124082 431.207459 -0.000000 0.333423 0.416095 -0.123524 -85.265112 -255.065694 -0.000000 0.087640 0.205264 -0.361426
2.520000 28.278883 464.893536 -0.000000 0.337464 0.409153 -0.123624 -105.019400 -274.743825 -0.000000 0.083353 0.212176 -0.361210
2.525000 32.960988 497.215806 -0.000000 0.340678 0.401474 -0.123515 -121.074544 -285.959156 -0.000000 0.079325 0.219383 -0.360991
2.530000 38.561986 527.425223 -0.000000 0.343911 0.392856 -0.123220 -132.888541 -288.251145 -0.000000 0.075553 0.226870 -0.360837
2.535000 44.297339 555.114011 -0.000000 0.346548 0.383689 -0.122888 -139.032561 -282.357027 -0.000000 0.072143 0.234620 -0.360718
2.540000 49.658703 580.107272 -0.000000 0.349107 0.374747 -0.122587 -138.840518 -269.523148 -0.000000 0.069037 0.242618 -0.360637
2.545000 55.554110 602.359979 -0.000000 0.351227 0.365295 -0.122118 -132.915628 -251.029704 -0.000000 0.066322 0.250842 -0.360567
2.550000 61.573130 622.162868 -0.000000 0.352874 0.355615 -0.122063 -121.716310 -228.690124 -0.000000 0.063957 0.259272 -0.360543
2.555000 67.093935 640.023776 -0.000000 0.354504 0.346031 -0.121938 -106.079429 -204.363639 -0.000000 0.062067 0.267884 -0.360531
2.560000 71.678878 656.605564 -0.000000 0.355742 0.336490 -0.122104 -87.187978 -179.692896 -0.000000 0.060548 0.276650 -0.360586
2.565000 76.270520 672.599796 -0.000000 0.356647 0.326377 -0.122515 -66.607847 -155.861459 -0.000000 0.059428 0.285542 -0.360610
2.570000 78.333523 689.266061 -0.000000 0.357596 0.316662 -0.122226 -44.928880 -134.057622 -0.000000 0.058783 0.294528 -0.360606
2.575000 79.169732 707.511429 -0.000000 0.357818 0.306601 -0.122343 -23.465707 -114.657629 -0.000000 0.058553 0.303575 -0.360695
2.580000 77.711477 728.386811 -0.000000 0.357493 0.296820 -0.122435 -2.758030 -97.915815 -0.000000 0.058754 0.312648 -0.360927
2.585000 75.554998 752.393124 -0.000000 0.356886 0.286932 -0.122146 16.454792 -83.777126 -0.000000 0.059374 0.321711 -0.361358
2.590000 70.993223 780.116187 -0.000000 0.355451 0.278019 -0.122247 34.001721 -72.008109 -0.000000 0.060418 0.330727 -0.361984
2.595000 69.276120 811.286296 -0.000000 0.353697 0.268314 -0.122157 49.135865 -62.583868 -0.000000 0.062176 0.339660 -0.361960
2.600000 69.187098 846.064769 -0.000000 0.351337 0.258613 -0.122067 61.851841 -55.325625 -0.000000 0.064420 0.348475 -0.362029
2.605000 71.120763 884.196527 -0.000000 0.348273 0.249046 -0.122149 71.961218 -50.085428 -0.000000 0.067188 0.357136 -0.362121
2.610000 75.349479 925.145673 -0.000000 0.344959 0.239553 -0.122257 79.283423 -46.665233 -0.000000 0.070555 0.365610 -0.362215
2.615000 82.982514 968.014032 -0.000000 0.340942 0.230086 -0.122085 83.625278 -44.871159 -0.000000 0.074489 0.373866 -0.362620
2.620000 93.278786 1011.800718 -0.000000 0.336586 0.221111 -0.121905 84.948214 -44.283396 -0.000000 0.079433 0.381876 -0.362678
2.625000 105.673528 1055.333697 -0.000000 0.331961 0.212478 -0.121451 83.290107 -44.499976 -0.000000 0.084779 0.389612 -0.364120
2.630000 125.257694 1096.734490 -0.000000 0.325619 0.203902 -0.121620 78.554765 -45.647212 -0.000000 0.091088 0.397051 -0.363775
2.635000 144.933670 1135.332607 -0.000000 0.319563 0.196003 -0.121355 71.235125 -47.104930 -0.000000 0.097777 0.404171 -0.364119
2.640000 167.894153 1169.347050 -0.000000 0.313098 0.188246 -0.121192 61.407946 -49.253434 -0.000000 0.105091 0.410955 -0.364331
2.645000 190.933103 1197.847909 -0.000000 0.306362 0.180968 -0.120884 49.343074 -52.199998 -0.000000 0.112489 0.417386 -0.364694
2.650000 216.057558 1219.287803 -0.000000 0.299131 0.174083 -0.120672 34.959675 -56.318036 -0.000000 0.120545 0.423449 -0.364216
2.655000 241.399302 1232.847817 -0.000000 0.291545 0.167489 -0.120442 18.264710 -61.658745 -0.000000 0.128884 0.429134 -0.363683
2.660000 266.380287 1237.668992 -0.000000 0.283869 0.161403 -0.120049 -0.737181 -68.152050 -0.000000 0.137916 0.434428 -0.363310
2.665000 286.425875 1233.955425 -0.000000 0.276644 0.156183 -0.119540 -21.629205 -75.604670 -0.000000 0.147207 0.439323 -0.363122
2.670000 309.633148 1219.123056 -0.000000 0.267625 0.150722 -0.120132 -44.529698 -83.478260 -0.000000 0.156456 0.443810 -0.362471
2.675000 324.695724 1195.315290 -0.000000 0.259710 0.146011 -0.119851 -68.122708 -91.496702 -0.000000 0.165947 0.447881 -0.362222
2.680000 335.535137 1161.255172 -0.000000 0.251599 0.141837 -0.119772 -91.858965 -98.955675 -0.000000 0.175470 0.451531 -0.362146
2.685000 341.717327 1116.949093 -0.000000 0.243443 0.138202 -0.119643 -114.790162 -105.196905 -0.000000 0.185098 0.454751 -0.362073
2.690000 342.701794 1062.753035 -0.000000 0.235306 0.134957 -0.119451 -135.906226 -109.663510 -0.000000 0.194729 0.457535 -0.362300
2.695000 338.392375 999.216288 -0.000000 0.227186 0.132443 -0.119361 -154.298742 -111.937992 -0.000000 0.204345 0.459876 -0.362551
2.700000 329.263976 927.021035 -0.000000 0.219038 0.129640 -0.119006 -169.289978 -111.741694 -0.000000 0.213942 0.461769 -0.362859
2.705000 314.219354 847.768931 -0.000000 0.211184 0.128126 -0.118807 -180.241398 -109.343608 -0.000000 0.223347 0.463205 -0.363228
2.710000 294.421447 762.638711 -0.000000 0.203359 0.126849 -0.118654 -187.042455 -104.850240 -0.000000 0.232411 0.464178 -0.363674
2.715000 271.265030 672.987312 -0.000000 0.195596 0.126067 -0.118555 -189.893911 -98.370815 -0.000000 0.241441 0.464680 -0.363901
2.720000 244.732863 580.932457 -0.000000 0.187943 0.125852 -0.118330 -189.006401 -90.452495 -0.000000 0.249997 0.464702 -0.364603
2.725000 216.996099 487.768349 -0.000000 0.180336 0.126266 -0.118151 -185.077921 -81.012282 -0.000000 0.258744 0.464238 -0.364422
2.730000 187.827572 395.741187 -0.000000 0.173072 0.127392 -0.117870 -178.559573 -70.712123 -0.000000 0.267177 0.463279 -0.364578
2.735000 159.252981 305.911709 -0.000000 0.165104 0.129086 -0.118161 -170.343481 -59.243317 -0.000000 0.275392 0.461817 -0.364681
2.740000 130.559321 220.404974 -0.000000 0.158079 0.131710 -0.117943 -160.813415 -47.513763 -0.000000 0.283319 0.459848 -0.364562
2.745000 103.283799 139.866041 -0.000000 0.150874 0.134727 -0.117990 -150.727186 -35.154208 -0.000000 0.291081 0.457364 -0.364900
2.750000 77.613856 65.224964 -0.000000 0.143821 0.138561 -0.118104 -140.507565 -22.363046 -0.000000 0.298389 0.454363 -0.364969
2.755000 53.863149 -3.149542 -0.000000 0.136723 0.142926 -0.118253 -130.516730 -8.939220 -0.000000 0.305337 0.450844 -0.365041
2.760000 32.065442 -65.063527 -0.000000 0.129922 0.147918 -0.118451 -120.972928 5.213441 -0.000000 0.311705 0.446808 -0.365054
2.765000 11.928688 -120.522836 -0.000000 0.123197 0.153911 -0.118927 -112.022027 20.630967 -0.000000 0.317683 0.442259 -0.365214
2.770000 -7.083385 -169.218495 -0.000000 0.116526 0.160710 -0.119753 -103.714049 37.648375 -0.000000 0.323358 0.437206 -0.365297
2.775000 -25.119881 -210.548120 -0.000000 0.110031 0.167917 -0.120522 -96.111774 56.420566 -0.000000 0.328469 0.431659 -0.365712
2.780000 -41.978217 -243.781890 -0.000000 0.103987 0.175257 -0.121090 -89.256014 77.102735 -0.000000 0.333022 0.425633 -0.365806
2.785000 -57.503039 -268.241465 -0.000000 0.098441 0.182721 -0.121555 -83.025168 99.871790 -0.000000 0.337298 0.419146 -0.366178
2.790000 -71.051376 -283.590787 -0.000000 0.093237 0.190240 -0.121753 -77.337892 124.616519 -0.000000 0.340959 0.412220 -0.366602
2.795000 -81.840456 -289.918559 -0.000000 0.089051 0.198022 -0.122246 -72.148162 151.068141 -0.000000 0.344290 0.404879 -0.366981
2.800000 -89.432932 -287.760538 -0.000000 0.084860 0.205908 -0.122604 -67.251475 178.951783 -0.000000 0.346942 0.397151 -0.367174
2.805000 -93.556265 -278.246685 -0.000000 0.080989 0.214132 -0.122739 -62.351545 207.966056 -0.000000 0.349480 0.389065 -0.367615
2.810000 -94.048045 -263.020418 -0.000000 0.077413 0.222804 -0.122749 -57.211757 237.794460 -0.000000 0.351850 0.380654 -0.367967
2.815000 -90.754617 -244.016393 -0.000000 0.074108 0.231700 -0.122808 -51.987028 268.090664 -0.000000 0.353541 0.371950 -0.368113
2.820000 -84.486122 -222.828306 -0.000000 0.071286 0.241123 -0.122675 -46.321979 298.674197 -0.000000 0.354842 0.362989 -0.368117
2.825000 -75.855823 -200.928529 -0.000000 0.069102 0.250867 -0.122466 -40.297487 329.288708 -0.000000 0.355940 0.353806 -0.368072
2.830000 -65.845472 -179.373775 -0.000000 0.066181 0.260875 -0.123517 -33.590106 359.751202 -0.000000 0.356674 0.344439 -0.367720
2.835000 -54.737321 -159.167339 -0.000000 0.065727 0.271172 -0.122424 -27.251508 389.767097 -0.000000 0.357162 0.334925 -0.367342
2.840000 -43.557441 -140.717510 -0.000000 0.064912 0.281534 -0.122351 -20.868657 419.248012 -0.000000 0.356749 0.325302 -0.367506
2.845000 -32.887125 -124.312369 -0.000000 0.064610 0.292014 -0.122280 -14.624960 448.195702 -0.000000 0.356407 0.315608 -0.367200
2.850000 -23.105140 -110.075931 -0.000000 0.065072 0.302584 -0.121988 -9.027977 476.938373 -0.000000 0.356212 0.305882 -0.368280
2.855000 -14.456030 -98.016851 -0.000000 0.066033 0.313131 -0.121717 -4.676924 506.232852 -0.000000 0.354737 0.296162 -0.367185
2.860000 -7.124392 -88.075702 -0.000000 0.067720 0.323565 -0.121265 -1.821656 537.125022 -0.000000 0.353098 0.286488 -0.367091
2.865000 -1.319411 -80.148588 -0.000000 0.071379 0.333863 -0.120861 0.208032 570.678600 -0.000000 0.350750 0.276898 -0.367188
2.870000 3.069435 -74.099502 -0.000000 0.074208 0.344191 -0.120891 0.294052 607.783296 -0.000000 0.350006 0.267429 -0.364016
2.875000 5.665594 -69.756401 -0.000000 0.076270 0.354279 -0.120975 1.186841 649.083378 -0.000000 0.344479 0.258121 -0.366692
2.880000 6.546764 -66.883949 -0.000000 0.080343 0.364399 -0.121203 2.423134 694.940633 -0.000000 0.340776 0.249009 -0.366378
2.885000 5.630642 -65.176911 -0.000000 0.085083 0.374168 -0.121894 5.152012 745.348031 -0.000000 0.336038 0.240130 -0.366406
2.890000 2.963743 -64.277482 -0.000000 0.090383 0.383497 -0.122196 9.647578 799.856656 -0.000000 0.330720 0.231519 -0.366218
2.895000 -1.297485 -63.830769 -0.000000 0.095375 0.392382 -0.123293 14.944542 857.626569 -0.000000 0.325048 0.223208 -0.365700
2.900000 -7.447706 -63.487163 -0.000000 0.101925 0.400922 -0.123496 26.276104 917.362001 -0.000000 0.318358 0.215231 -0.365454
2.905000 -15.330866 -62.857940 -0.000000 0.109893 0.408931 -0.122733 43.630908 977.449647 -0.000000 0.311250 0.207617 -0.365140
2.910000 -24.261430 -61.771379 -0.000000 0.117492 0.416428 -0.122884 58.846300 1036.422068 -0.000000 0.305586 0.200395 -0.362093
2.915000 -34.586906 -59.860374 -0.000000 0.124860 0.423406 -0.123929 81.198820 1091.746319 -0.000000 0.297629 0.193592 -0.361910
2.920000 -46.219352 -56.744185 -0.000000 0.133246 0.430166 -0.124024 116.316665 1140.347136 -0.000000 0.287484 0.187232 -0.364679
2.925000 -58.320176 -52.613029 -0.000000 0.144235 0.436137 -0.122931 157.073059 1179.954730 -0.000000 0.278948 0.181339 -0.364535
2.930000 -69.933257 -48.333795 -0.000000 0.152918 0.440884 -0.123894 190.617622 1209.986280 -0.000000 0.270145 0.175934 -0.364383
2.935000 -81.172536 -43.661609 -0.000000 0.161841 0.446041 -0.124289 226.707672 1227.227415 -0.000000 0.261203 0.171036 -0.364260
2.940000 -91.684733 -38.667005 -0.000000 0.171526 0.450410 -0.124370 263.720848 1230.148569 -0.000000 0.252172 0.166664 -0.364128
2.945000 -101.091191 -33.536996 -0.000000 0.180906 0.454533 -0.125138 296.682095 1218.617670 -0.000000 0.243065 0.162833 -0.363984
2.950000 -109.232053 -28.016190 -0.000000 0.190538 0.458215 -0.125521 325.746460 1192.120005 -0.000000 0.233937 0.159558 -0.363928
2.955000 -115.935796 -21.940570 -0.000000 0.200330 0.461482 -0.125968 349.319431 1151.091403 -0.000000 0.224776 0.156851 -0.363804
2.960000 -121.075496 -15.316311 -0.000000 0.210027 0.464034 -0.126118 364.846643 1096.923319 -0.000000 0.215729 0.154722 -0.363714
